<?xml version="1.0" encoding="UTF-8"?>
<!-- Generator: Adobe Illustrator 17.0.0, SVG Export Plug-In . SVG Version: 6.00 Build 0)  -->
<!DOCTYPE svg PUBLIC "-//W3C//DTD SVG 1.1//EN" "http://www.w3.org/Graphics/SVG/1.1/DTD/svg11.dtd">
<svg version="1.1" id="Layer_1" xmlns="http://www.w3.org/2000/svg" xmlns:xlink="http://www.w3.org/1999/xlink" x="0px" y="0px" width="132px" height="50px" viewBox="0 0 132 50" enable-background="new 0 0 132 50" xml:space="preserve">
<path fill="#414142" d="M109.738,26.509c-1.263-1.621-3.075-2.97-4.693-3.943c-0.864-0.52-4.79-2.816-9.831-5.758l0-0.001  l-0.27-0.156c-1.449-0.846-2.981-1.739-4.562-2.661v0.019L66.194,0L38.254,16.119l-0.001,0.005  c-5.595,3.225-10.126,5.823-11.275,6.443c-1.906,1.028-3.576,2.276-4.717,3.748l19.387,9.772c-0.006-0.012-0.01-0.025-0.016-0.037  l24.561,12.408L89.57,36.674c0,0.001-0.001,0.001-0.001,0.002L109.738,26.509z"/>
</svg>