<?xml version="1.0" encoding="utf-8"?>
<!-- Generator: Adobe Illustrator 16.0.0, SVG Export Plug-In . SVG Version: 6.00 Build 0)  -->
<!DOCTYPE svg PUBLIC "-//W3C//DTD SVG 1.1//EN" "http://www.w3.org/Graphics/SVG/1.1/DTD/svg11.dtd">
<svg version="1.1" id="Layer_1" xmlns="http://www.w3.org/2000/svg" xmlns:xlink="http://www.w3.org/1999/xlink" x="0px" y="0px"
	 width="132px" height="119px" viewBox="0 0 132 119" enable-background="new 0 0 132 119" xml:space="preserve">
<g>
	<path fill="#B2AEA5" d="M112.453,96.584c0,1.104-0.821,1.999-1.833,1.999H21.952c-1.012,0-1.833-0.895-1.833-1.999l0,0
		c0-1.105,0.821-2.001,1.833-2.001h88.668C111.632,94.583,112.453,95.479,112.453,96.584L112.453,96.584z"/>
	<g>
		<path fill="#414142" d="M85.078,59.032H47.009V20.963h38.069V59.032z M48.267,57.774H83.82V22.221H48.267V57.774z"/>
		<g>
			<path fill="#414142" d="M44.392,63.083c-0.361,0-0.694-0.149-0.988-0.442c-0.935-0.931-0.183-1.878,0.267-2.444
				c0.306-0.384,0.621-0.781,0.621-1.162c0-0.433-0.174-0.621-0.462-0.932c-0.336-0.363-0.796-0.86-0.796-1.786
				c0-0.925,0.46-1.422,0.797-1.785c0.287-0.311,0.461-0.498,0.461-0.93c0-0.433-0.174-0.621-0.462-0.932
				c-0.336-0.363-0.796-0.86-0.796-1.786s0.46-1.423,0.797-1.786c0.287-0.311,0.461-0.499,0.461-0.931
				c0-0.434-0.174-0.621-0.462-0.932c-0.336-0.363-0.796-0.861-0.796-1.787c0-0.925,0.46-1.423,0.796-1.786
				c0.288-0.311,0.462-0.499,0.462-0.932c0-0.434-0.174-0.622-0.462-0.933c-0.336-0.363-0.796-0.86-0.796-1.786
				c0-0.926,0.46-1.424,0.796-1.787c0.288-0.312,0.462-0.5,0.462-0.933s-0.174-0.622-0.462-0.933
				c-0.336-0.363-0.796-0.86-0.796-1.787c0-0.926,0.46-1.423,0.797-1.786c0.287-0.311,0.461-0.499,0.461-0.931
				c0-0.434-0.174-0.622-0.462-0.933c-0.336-0.363-0.796-0.86-0.796-1.787s0.46-1.424,0.796-1.787
				c0.288-0.312,0.462-0.5,0.462-0.933c0-0.434-0.174-0.622-0.462-0.934c-0.336-0.363-0.796-0.861-0.796-1.788
				c0-0.927,0.46-1.426,0.796-1.79c0.288-0.312,0.462-0.5,0.462-0.936c0-0.382-0.315-0.78-0.621-1.165
				c-0.45-0.566-1.202-1.513-0.27-2.448c0.293-0.294,0.625-0.443,0.986-0.443c0.563,0,1.019,0.361,1.458,0.71
				c0.384,0.305,0.781,0.621,1.161,0.621c0.433,0,0.62-0.174,0.932-0.461c0.362-0.336,0.86-0.796,1.786-0.796
				c0.925,0,1.422,0.46,1.785,0.796c0.311,0.288,0.497,0.461,0.93,0.461c0.434,0,0.621-0.174,0.933-0.461
				c0.362-0.336,0.859-0.796,1.785-0.796s1.423,0.46,1.786,0.797c0.311,0.288,0.498,0.461,0.93,0.461
				c0.434,0,0.621-0.174,0.933-0.461c0.363-0.336,0.86-0.796,1.787-0.796c0.926,0,1.423,0.46,1.785,0.796
				c0.312,0.288,0.499,0.461,0.933,0.461s0.621-0.174,0.933-0.461c0.363-0.336,0.86-0.796,1.786-0.796s1.423,0.46,1.786,0.796
				c0.312,0.288,0.499,0.461,0.933,0.461s0.622-0.174,0.934-0.462c0.363-0.336,0.86-0.796,1.787-0.796
				c0.926,0,1.423,0.46,1.785,0.796c0.312,0.288,0.499,0.461,0.932,0.461c0.434,0,0.621-0.174,0.933-0.461
				c0.363-0.336,0.86-0.796,1.786-0.796c0.927,0,1.424,0.46,1.787,0.796c0.312,0.288,0.5,0.462,0.934,0.462s0.622-0.174,0.934-0.462
				c0.363-0.336,0.86-0.796,1.787-0.796s1.425,0.46,1.789,0.796c0.312,0.288,0.5,0.462,0.936,0.462c0.383,0,0.781-0.316,1.166-0.622
				c0.439-0.349,0.895-0.71,1.459-0.71c0.361,0,0.694,0.148,0.988,0.441c0.935,0.931,0.183,1.878-0.268,2.444
				c-0.305,0.384-0.62,0.781-0.62,1.162c0,0.433,0.174,0.621,0.462,0.932c0.336,0.363,0.796,0.86,0.796,1.786
				c0,0.925-0.46,1.422-0.797,1.785c-0.287,0.311-0.461,0.498-0.461,0.93c0,0.433,0.174,0.621,0.462,0.932
				c0.336,0.363,0.796,0.86,0.796,1.787c0,0.926-0.46,1.423-0.797,1.786c-0.287,0.311-0.461,0.498-0.461,0.931
				c0,0.434,0.174,0.621,0.462,0.932c0.336,0.363,0.796,0.861,0.796,1.787s-0.46,1.423-0.797,1.786
				c-0.287,0.311-0.461,0.499-0.461,0.931c0,0.434,0.174,0.621,0.462,0.932c0.336,0.363,0.796,0.861,0.796,1.787
				c0,0.926-0.46,1.424-0.796,1.787c-0.288,0.312-0.462,0.5-0.462,0.933c0,0.434,0.174,0.622,0.462,0.934
				c0.336,0.363,0.796,0.86,0.796,1.787c0,0.925-0.46,1.422-0.796,1.785c-0.288,0.311-0.462,0.499-0.462,0.931
				c0,0.434,0.174,0.622,0.462,0.933c0.336,0.363,0.796,0.86,0.796,1.787s-0.46,1.424-0.796,1.787
				c-0.288,0.312-0.462,0.5-0.462,0.933c0,0.435,0.174,0.623,0.462,0.934c0.336,0.363,0.796,0.861,0.796,1.787
				c0,0.886-0.497,1.429-0.859,1.825c-0.405,0.442-0.49,0.578-0.398,0.901c0.158,0.554,0.479,0.949,0.762,1.298
				c0.409,0.503,1.093,1.347,0.129,2.314c-0.293,0.294-0.625,0.443-0.986,0.443c-0.563,0-1.019-0.361-1.458-0.71
				c-0.384-0.305-0.781-0.621-1.161-0.621c-0.433,0-0.62,0.174-0.932,0.461c-0.362,0.336-0.86,0.796-1.786,0.796
				c-0.925,0-1.422-0.46-1.785-0.796c-0.311-0.288-0.497-0.461-0.93-0.461c-0.434,0-0.621,0.174-0.933,0.461
				c-0.362,0.336-0.859,0.796-1.785,0.796s-1.423-0.46-1.786-0.797c-0.311-0.288-0.498-0.461-0.93-0.461
				c-0.434,0-0.621,0.174-0.933,0.461c-0.363,0.336-0.86,0.796-1.786,0.796s-1.424-0.46-1.786-0.796
				c-0.312-0.288-0.499-0.461-0.932-0.461c-0.434,0-0.621,0.174-0.933,0.461c-0.363,0.336-0.86,0.796-1.786,0.796
				c-0.927,0-1.424-0.46-1.787-0.796c-0.312-0.288-0.499-0.461-0.933-0.461s-0.621,0.174-0.933,0.461
				c-0.363,0.336-0.86,0.796-1.787,0.796c-0.926,0-1.423-0.46-1.785-0.796c-0.312-0.288-0.499-0.461-0.932-0.461
				c-0.434,0-0.622,0.174-0.934,0.462c-0.363,0.336-0.86,0.796-1.786,0.796c-0.927,0-1.424-0.46-1.787-0.796
				c-0.312-0.288-0.5-0.462-0.934-0.462s-0.622,0.174-0.934,0.462c-0.363,0.336-0.86,0.796-1.787,0.796s-1.425-0.46-1.789-0.796
				c-0.312-0.288-0.5-0.462-0.936-0.462c-0.383,0-0.781,0.316-1.166,0.622C45.411,62.721,44.956,63.082,44.392,63.083z
				 M44.218,61.654c0.001,0,0.011,0.033,0.073,0.095c0.057,0.056,0.092,0.073,0.1,0.075h0.001c0.126,0,0.458-0.264,0.677-0.438
				c0.502-0.399,1.127-0.895,1.948-0.895c0.927,0,1.425,0.46,1.789,0.796c0.312,0.288,0.5,0.462,0.936,0.462
				c0.434,0,0.622-0.174,0.934-0.462c0.363-0.336,0.86-0.796,1.787-0.796s1.424,0.46,1.787,0.796c0.312,0.288,0.5,0.462,0.934,0.462
				s0.621-0.174,0.933-0.461c0.363-0.336,0.86-0.796,1.787-0.796c0.926,0,1.423,0.46,1.785,0.796
				c0.312,0.288,0.499,0.461,0.932,0.461c0.434,0,0.622-0.174,0.934-0.462c0.363-0.336,0.86-0.796,1.786-0.796
				s1.423,0.46,1.786,0.796c0.312,0.288,0.5,0.462,0.934,0.462s0.621-0.174,0.933-0.461c0.363-0.336,0.86-0.796,1.786-0.796
				s1.423,0.46,1.785,0.796c0.312,0.288,0.499,0.461,0.933,0.461s0.621-0.174,0.933-0.461c0.363-0.336,0.86-0.796,1.786-0.796
				c0.925,0,1.422,0.46,1.785,0.796c0.311,0.288,0.498,0.461,0.931,0.461s0.62-0.174,0.932-0.461
				c0.362-0.336,0.86-0.796,1.786-0.796c0.925,0,1.422,0.46,1.785,0.796c0.311,0.288,0.497,0.461,0.93,0.461
				c0.434,0,0.621-0.174,0.933-0.461c0.362-0.336,0.859-0.796,1.785-0.796c0.819,0,1.442,0.496,1.944,0.894
				c0.219,0.174,0.55,0.437,0.675,0.437l0,0c0,0,0.032-0.01,0.096-0.073c0.111-0.111,0.128-0.166,0.128-0.166
				c-0.017-0.066-0.205-0.298-0.343-0.468c-0.323-0.398-0.766-0.943-0.994-1.745c-0.295-1.032,0.269-1.646,0.68-2.095
				c0.338-0.37,0.529-0.597,0.529-0.976c0-0.434-0.174-0.622-0.462-0.934c-0.336-0.363-0.796-0.861-0.796-1.788
				c0-0.926,0.46-1.423,0.796-1.787c0.288-0.312,0.462-0.5,0.462-0.934c0-0.434-0.174-0.622-0.462-0.933
				c-0.336-0.363-0.796-0.86-0.796-1.787c0-0.926,0.46-1.423,0.797-1.786c0.287-0.311,0.461-0.498,0.461-0.931
				c0-0.434-0.174-0.622-0.462-0.933c-0.336-0.363-0.796-0.861-0.796-1.787s0.46-1.424,0.796-1.787
				c0.288-0.312,0.462-0.5,0.462-0.933s-0.174-0.621-0.462-0.932c-0.336-0.363-0.796-0.861-0.796-1.787
				c0-0.925,0.46-1.422,0.796-1.786c0.288-0.311,0.462-0.499,0.462-0.932c0-0.434-0.174-0.621-0.462-0.932
				c-0.336-0.363-0.796-0.861-0.796-1.787c0-0.925,0.46-1.422,0.796-1.785c0.288-0.311,0.462-0.499,0.462-0.931
				c0-0.434-0.174-0.621-0.462-0.932c-0.336-0.363-0.796-0.86-0.796-1.786c0-0.925,0.46-1.422,0.797-1.785
				c0.287-0.311,0.461-0.498,0.461-0.93c0-0.433-0.174-0.621-0.462-0.932c-0.336-0.363-0.796-0.86-0.796-1.786
				c0-0.819,0.495-1.442,0.894-1.944c0.155-0.196,0.445-0.56,0.438-0.676l0,0c-0.001,0-0.01-0.032-0.073-0.095
				c-0.065-0.065-0.1-0.075-0.1-0.075c-0.127,0-0.458,0.263-0.678,0.438c-0.502,0.399-1.127,0.895-1.948,0.895
				c-0.927,0-1.425-0.46-1.789-0.796c-0.312-0.288-0.5-0.462-0.936-0.462c-0.434,0-0.622,0.174-0.934,0.462
				c-0.363,0.336-0.86,0.796-1.787,0.796s-1.424-0.46-1.787-0.796c-0.312-0.288-0.5-0.462-0.934-0.462s-0.621,0.174-0.933,0.461
				c-0.363,0.336-0.86,0.796-1.786,0.796s-1.423-0.46-1.785-0.796c-0.312-0.288-0.499-0.461-0.932-0.461
				c-0.434,0-0.622,0.174-0.934,0.462c-0.363,0.336-0.86,0.796-1.787,0.796c-0.926,0-1.423-0.46-1.786-0.796
				c-0.312-0.288-0.499-0.461-0.933-0.461s-0.621,0.174-0.933,0.461c-0.363,0.336-0.86,0.796-1.786,0.796s-1.424-0.46-1.786-0.796
				c-0.312-0.288-0.499-0.461-0.932-0.461c-0.434,0-0.622,0.174-0.934,0.462c-0.363,0.336-0.86,0.796-1.786,0.796
				c-0.925,0-1.422-0.46-1.785-0.796c-0.311-0.288-0.498-0.461-0.931-0.461s-0.62,0.174-0.932,0.461
				c-0.362,0.336-0.86,0.796-1.786,0.796c-0.925,0-1.422-0.46-1.785-0.796c-0.311-0.288-0.497-0.461-0.93-0.461
				c-0.434,0-0.621,0.174-0.933,0.461c-0.362,0.336-0.859,0.796-1.785,0.796c-0.819,0-1.442-0.496-1.944-0.894
				c-0.219-0.174-0.55-0.437-0.675-0.437l0,0c0,0-0.032,0.01-0.096,0.073c-0.065,0.065-0.074,0.099-0.074,0.1
				c-0.012,0.113,0.28,0.481,0.438,0.678c0.398,0.502,0.895,1.126,0.895,1.947c0,0.927-0.46,1.425-0.796,1.789
				c-0.288,0.312-0.462,0.501-0.462,0.937c0,0.435,0.174,0.623,0.462,0.934c0.336,0.363,0.796,0.861,0.796,1.787
				s-0.46,1.424-0.796,1.787c-0.288,0.312-0.462,0.5-0.462,0.933s0.174,0.622,0.462,0.933c0.336,0.363,0.796,0.86,0.796,1.787
				c0,0.926-0.46,1.423-0.797,1.786c-0.287,0.311-0.461,0.499-0.461,0.931c0,0.434,0.174,0.622,0.462,0.933
				c0.336,0.363,0.796,0.86,0.796,1.787s-0.46,1.424-0.796,1.787c-0.288,0.312-0.462,0.5-0.462,0.933s0.174,0.621,0.462,0.932
				c0.336,0.363,0.796,0.861,0.796,1.787c0,0.926-0.46,1.423-0.797,1.786c-0.287,0.311-0.461,0.499-0.461,0.931
				c0,0.434,0.174,0.621,0.462,0.932c0.336,0.363,0.796,0.861,0.796,1.787s-0.46,1.423-0.797,1.786
				c-0.287,0.311-0.461,0.499-0.461,0.931c0,0.433,0.174,0.621,0.462,0.932c0.336,0.363,0.796,0.86,0.796,1.786
				c0,0.925-0.46,1.422-0.797,1.785c-0.287,0.311-0.461,0.498-0.461,0.93c0,0.433,0.174,0.621,0.462,0.932
				c0.336,0.363,0.796,0.86,0.796,1.786c0,0.819-0.495,1.443-0.894,1.944C44.5,61.175,44.211,61.539,44.218,61.654L44.218,61.654z"
				/>
		</g>
		<polygon fill="#414142" points="50.612,43.53 65.485,34.606 73.108,40.741 77.569,37.767 81.475,40.741 81.475,55.243 
			50.612,55.243 		"/>
		<circle fill="#414142" cx="56.469" cy="30.051" r="3.626"/>
		<g>
			<path fill="#414142" d="M21.321,54.769c-0.229,0.663-0.357,1.359-0.357,2.095v32.044c0,1.523,0.542,2.919,1.442,4.007
				l30.861-22.043L21.321,54.769z"/>
			<path fill="#414142" d="M111.26,54.948L79.668,70.872l30.625,21.874c0.821-1.062,1.315-2.392,1.315-3.838V56.863
				C111.608,56.201,111.481,55.562,111.26,54.948z"/>
			<path fill="#414142" d="M89.843,62.926l20.17-10.167c-1.263-1.621-3.075-2.97-4.693-3.943c-1.125-0.677-7.443-4.367-14.663-8.576
				v20.016C90.656,61.246,90.356,62.164,89.843,62.926z"/>
			<polygon fill="#414142" points="66.468,74.708 85.647,65.041 47.289,65.041 			"/>
			<path fill="#414142" d="M41.43,60.257V40.7c-6.88,3.971-12.835,7.393-14.177,8.117c-1.906,1.028-3.576,2.276-4.717,3.748
				l19.387,9.772C41.616,61.705,41.43,61.006,41.43,60.257z"/>
			<path fill="#414142" d="M66.481,77.546L55.806,72.15L24.464,94.537c0.841,0.418,1.786,0.659,2.789,0.659h78.066
				c1.089,0,2.112-0.277,3.005-0.764L77.13,72.151L66.481,77.546z"/>
		</g>
	</g>
</g>
</svg>
