<?xml version="1.0" encoding="UTF-8"?>
<!-- Generator: Adobe Illustrator 17.0.0, SVG Export Plug-In . SVG Version: 6.00 Build 0)  -->
<!DOCTYPE svg PUBLIC "-//W3C//DTD SVG 1.1//EN" "http://www.w3.org/Graphics/SVG/1.1/DTD/svg11.dtd">
<svg version="1.1" id="Layer_1" xmlns="http://www.w3.org/2000/svg" xmlns:xlink="http://www.w3.org/1999/xlink" x="0px" y="0px" width="132px" height="119px" viewBox="0 0 132 119" enable-background="new 0 0 132 119" xml:space="preserve">
<polygon fill="#D7D3C7" points="25.266,56.617 66.158,73.339 110.089,55.553 66.766,81.091 "/>
<path fill="#D7D3C7" d="M47.895,68.167l10.894,5.483L28.895,95.28c0,0-6.975,0.349-7.788-5.928  C24.478,85.981,47.895,68.167,47.895,68.167z"/>
<path fill="#D7D3C7" d="M84.984,68.167L74.09,73.649l29.893,21.631c0,0,6.975,0.349,7.788-5.928  C108.401,85.981,84.984,68.167,84.984,68.167z"/>
<g>
	<path fill="#B2AEA5" d="M112.453,96.584c0,1.104-0.821,1.999-1.833,1.999H21.952c-1.012,0-1.833-0.895-1.833-1.999l0,0   c0-1.105,0.821-2.001,1.833-2.001h88.668C111.632,94.583,112.453,95.479,112.453,96.584L112.453,96.584z"/>
	<g>
		<g>
			<path fill="#414142" d="M21.321,54.769c-0.229,0.663-0.357,1.359-0.357,2.095v32.044c0,1.523,0.542,2.919,1.442,4.007     l30.861-22.043L21.321,54.769z"/>
			<path fill="#414142" d="M111.26,54.948L79.668,70.872l30.625,21.874c0.821-1.062,1.315-2.392,1.315-3.838V56.863     C111.608,56.201,111.481,55.562,111.26,54.948z"/>
			<path fill="#414142" d="M66.481,77.546L55.806,72.15L24.464,94.537c0.841,0.418,1.786,0.659,2.789,0.659h78.066     c1.089,0,2.112-0.277,3.005-0.764L77.13,72.151L66.481,77.546z"/>
		</g>
	</g>
</g>
</svg>