<?xml version="1.0" encoding="utf-8"?>
<!-- Generator: Adobe Illustrator 16.0.0, SVG Export Plug-In . SVG Version: 6.00 Build 0)  -->
<!DOCTYPE svg PUBLIC "-//W3C//DTD SVG 1.1//EN" "http://www.w3.org/Graphics/SVG/1.1/DTD/svg11.dtd">
<svg version="1.1" id="Layer_1" xmlns="http://www.w3.org/2000/svg" xmlns:xlink="http://www.w3.org/1999/xlink" x="0px" y="0px"
	 width="43px" height="43.977px" viewBox="0 0 43 43.977" enable-background="new 0 0 43 43.977" xml:space="preserve">
<g>
	<g>
		<path fill="#4D4E53" d="M21.289,32.388c-5.628,0-10.206-4.579-10.206-10.207c0-5.627,4.578-10.206,10.206-10.206
			s10.206,4.579,10.206,10.206C31.495,27.809,26.917,32.388,21.289,32.388z M21.289,13.475c-4.801,0-8.706,3.906-8.706,8.706
			c0,4.801,3.905,8.707,8.706,8.707s8.706-3.906,8.706-8.707C29.995,17.38,26.09,13.475,21.289,13.475z"/>
	</g>
	<g>
		<path fill="#4D4E53" d="M14.821,29.4c-0.192,0-0.384-0.073-0.53-0.22c-0.293-0.293-0.293-0.768,0-1.061l13.103-13.104
			c0.293-0.293,0.768-0.293,1.061,0s0.293,0.768,0,1.061L15.352,29.181C15.205,29.327,15.014,29.4,14.821,29.4z"/>
	</g>
</g>
</svg>
