<?xml version="1.0" encoding="utf-8"?>
<!-- Generator: Adobe Illustrator 16.0.0, SVG Export Plug-In . SVG Version: 6.00 Build 0)  -->
<!DOCTYPE svg PUBLIC "-//W3C//DTD SVG 1.1//EN" "http://www.w3.org/Graphics/SVG/1.1/DTD/svg11.dtd">
<svg version="1.1" id="Layer_1" xmlns="http://www.w3.org/2000/svg" xmlns:xlink="http://www.w3.org/1999/xlink" x="0px" y="0px"
	 width="125px" height="185px" viewBox="0 0 125 185" enable-background="new 0 0 125 185" xml:space="preserve">
<g>
	<path fill="#4D4E53" d="M61.45,66.135c-30.311,0-46.992,25.73-46.992,25.73s16.682,26.578,46.992,26.578
		c30.315,0,47.059-26.578,47.059-26.578S91.766,66.136,61.45,66.135z M61.914,116.402c-13.388,0-24.278-10.84-24.278-24.228
		S48.526,68,61.914,68c0.001,0,0.001,0,0.002,0c6.484,0,12.581,2.433,17.167,7.019c4.585,4.586,7.11,10.591,7.11,17.076
		C86.193,105.481,75.302,116.4,61.914,116.402z M99.017,99.132c-0.228,0.243-0.573,0.36-0.922,0.36c-0.896,0-1.812-0.771-0.81-2.165
		c2.141-2.979,1.104-6.399-0.655-9.081c-0.886-1.349-0.142-3,0.929-3c0.302,0,0.629,0.13,0.952,0.435
		c1.074,1.013,1.217,2.098,3.611,4.387c2.111,2.022,2.189,2.983,0.635,4.392C101.02,96.029,100.272,97.788,99.017,99.132z"/>
</g>
<g>
	<g>
		<path fill="#4D4E53" d="M61.729,130.423c-0.599,0-1.084-0.485-1.084-1.084v-5.072c0-0.599,0.485-1.084,1.084-1.084
			s1.084,0.485,1.084,1.084v5.072C62.812,129.938,62.327,130.423,61.729,130.423z"/>
	</g>
	<g>
		<path fill="#4D4E53" d="M50.75,129.175c-0.093,0-0.188-0.012-0.281-0.038c-0.579-0.155-0.922-0.749-0.768-1.328l1.312-4.899
			c0.155-0.579,0.75-0.924,1.328-0.767c0.579,0.155,0.922,0.749,0.768,1.328l-1.312,4.899
			C51.667,128.855,51.229,129.175,50.75,129.175z"/>
	</g>
	<g>
		<path fill="#4D4E53" d="M39.84,125.417c-0.184,0-0.37-0.047-0.541-0.145c-0.519-0.299-0.696-0.962-0.397-1.481l2.534-4.393
			c0.3-0.519,0.961-0.696,1.481-0.397c0.519,0.299,0.696,0.962,0.397,1.481l-2.534,4.393
			C40.579,125.222,40.215,125.417,39.84,125.417z"/>
	</g>
	<g>
		<path fill="#4D4E53" d="M30.926,120.198c-0.277,0-0.555-0.106-0.767-0.317c-0.424-0.423-0.424-1.11-0.001-1.534l3.584-3.588
			c0.424-0.424,1.11-0.423,1.534,0c0.424,0.423,0.424,1.11,0.001,1.534l-3.584,3.588C31.481,120.092,31.203,120.198,30.926,120.198z
			"/>
	</g>
	<g>
		<g>
			<path fill="#4D4E53" d="M73.121,129.175c-0.479,0-0.917-0.32-1.047-0.804l-1.312-4.899c-0.154-0.579,0.188-1.173,0.768-1.328
				c0.577-0.158,1.173,0.188,1.328,0.767l1.312,4.899c0.154,0.579-0.188,1.173-0.768,1.328
				C73.309,129.163,73.214,129.175,73.121,129.175z"/>
		</g>
		<g>
			<path fill="#4D4E53" d="M84.029,125.417c-0.375,0-0.739-0.194-0.94-0.542l-2.535-4.393c-0.299-0.519-0.121-1.182,0.397-1.481
				c0.521-0.299,1.182-0.121,1.481,0.397l2.535,4.393c0.299,0.519,0.121,1.182-0.397,1.481
				C84.399,125.37,84.213,125.417,84.029,125.417z"/>
		</g>
		<g>
			<path fill="#4D4E53" d="M92.944,120.198c-0.277,0-0.556-0.106-0.767-0.318l-3.586-3.588c-0.424-0.424-0.424-1.11,0-1.534
				c0.424-0.423,1.111-0.423,1.533,0l3.586,3.588c0.424,0.424,0.424,1.11,0,1.534C93.499,120.092,93.222,120.198,92.944,120.198z"/>
		</g>
	</g>
</g>
<g>
	<g>
		<path fill="#4D4E53" d="M61.729,59.915c-0.599,0-1.084-0.485-1.084-1.084v-5.071c0-0.599,0.485-1.084,1.084-1.084
			s1.084,0.485,1.084,1.084v5.071C62.812,59.429,62.327,59.915,61.729,59.915z"/>
	</g>
	<g>
		<path fill="#4D4E53" d="M52.06,60.991c-0.479,0-0.917-0.32-1.047-0.805l-1.312-4.899c-0.154-0.579,0.188-1.173,0.768-1.328
			c0.578-0.156,1.173,0.188,1.328,0.767l1.312,4.899c0.154,0.579-0.188,1.173-0.768,1.328C52.247,60.979,52.152,60.991,52.06,60.991
			z"/>
	</g>
	<g>
		<path fill="#4D4E53" d="M42.376,64.242c-0.375,0-0.739-0.194-0.94-0.542l-2.534-4.393c-0.299-0.519-0.121-1.182,0.397-1.481
			c0.521-0.299,1.182-0.121,1.481,0.397l2.534,4.393c0.299,0.519,0.121,1.182-0.397,1.481C42.746,64.195,42.56,64.242,42.376,64.242
			z"/>
	</g>
	<g>
		<path fill="#4D4E53" d="M34.51,68.656c-0.277,0-0.556-0.106-0.768-0.318l-3.584-3.587c-0.423-0.424-0.423-1.11,0.001-1.534
			c0.424-0.423,1.11-0.423,1.534,0l3.584,3.587c0.423,0.424,0.423,1.11-0.001,1.534C35.064,68.55,34.787,68.656,34.51,68.656z"/>
	</g>
	<g>
		<g>
			<path fill="#4D4E53" d="M71.811,60.991c-0.093,0-0.188-0.012-0.281-0.038c-0.579-0.155-0.922-0.75-0.768-1.328l1.312-4.899
				c0.155-0.579,0.751-0.922,1.328-0.767c0.579,0.155,0.922,0.75,0.768,1.328l-1.312,4.899
				C72.728,60.671,72.289,60.991,71.811,60.991z"/>
		</g>
		<g>
			<path fill="#4D4E53" d="M81.492,64.242c-0.184,0-0.37-0.047-0.541-0.145c-0.519-0.3-0.696-0.963-0.397-1.481l2.535-4.393
				c0.3-0.519,0.962-0.696,1.481-0.397c0.519,0.3,0.696,0.963,0.397,1.481l-2.535,4.393C82.231,64.047,81.867,64.242,81.492,64.242z
				"/>
		</g>
		<g>
			<path fill="#4D4E53" d="M89.358,68.656c-0.277,0-0.555-0.106-0.767-0.317c-0.424-0.424-0.424-1.11,0-1.534l3.586-3.587
				c0.422-0.424,1.109-0.423,1.533,0c0.424,0.424,0.424,1.11,0,1.534l-3.586,3.587C89.914,68.55,89.636,68.656,89.358,68.656z"/>
		</g>
	</g>
</g>
<g>
	<path fill="#4D4E53" d="M61.466,160.814c-19.356,0-38.164-7.537-52.958-21.222c-0.507-0.469-0.538-1.26-0.069-1.766
		c0.47-0.507,1.26-0.538,1.767-0.069c14.331,13.256,32.536,20.557,51.261,20.557c18.633,0,36.769-7.238,51.066-20.38
		c0.508-0.466,1.299-0.435,1.766,0.075c0.468,0.508,0.435,1.299-0.074,1.766C99.464,153.342,80.727,160.814,61.466,160.814z"/>
</g>
<g>
	<path fill="#4D4E53" d="M9.356,45.672c-0.336,0-0.671-0.135-0.918-0.401c-0.469-0.507-0.438-1.297,0.069-1.766
		C23.302,29.82,42.109,22.283,61.466,22.282c19.261,0,37.998,7.472,52.758,21.04c0.509,0.467,0.542,1.258,0.074,1.766
		c-0.467,0.51-1.258,0.542-1.766,0.075c-14.298-13.143-32.434-20.38-51.066-20.38c-18.725,0.001-36.93,7.302-51.261,20.557
		C9.965,45.562,9.66,45.672,9.356,45.672z"/>
</g>
</svg>
