<?xml version="1.0" encoding="utf-8"?>
<!-- Generator: Adobe Illustrator 16.0.0, SVG Export Plug-In . SVG Version: 6.00 Build 0)  -->
<!DOCTYPE svg PUBLIC "-//W3C//DTD SVG 1.1//EN" "http://www.w3.org/Graphics/SVG/1.1/DTD/svg11.dtd">
<svg version="1.1" id="Layer_1" xmlns="http://www.w3.org/2000/svg" xmlns:xlink="http://www.w3.org/1999/xlink" x="0px" y="0px"
	 width="144px" height="112px" viewBox="0 0 144 112" enable-background="new 0 0 144 112" xml:space="preserve">
<path fill="#B2AEA5" d="M118.544,90.415c0,1.104-0.822,1.999-1.834,1.999H28.042c-1.012,0-1.832-0.895-1.832-1.999l0,0
	c0-1.105,0.82-2.001,1.832-2.001h88.668C117.722,88.414,118.544,89.31,118.544,90.415L118.544,90.415z"/>
<g>
	<rect x="62.689" y="77.782" fill="#414142" width="4.099" height="9.015"/>
	<rect x="45.481" y="85.614" fill="#414142" width="38.512" height="2.854"/>
	<path fill="#414142" d="M110.732,54.784h5.217c0.354,0,0.642-0.287,0.642-0.642c0-0.353-0.288-0.64-0.642-0.64h-5.217
		c-0.357,0-0.644,0.287-0.644,0.64C110.089,54.497,110.375,54.784,110.732,54.784z"/>
	<circle fill="#414142" cx="113.34" cy="82.19" r="1.731"/>
	<g>
		<path fill="#414142" d="M121.396,49.14h-16.111c-2.264,0-4.099,1.834-4.099,4.098v31.134c0,2.263,1.835,4.098,4.099,4.098h16.111
			c2.26,0,4.097-1.835,4.097-4.098V53.237C125.493,50.974,123.656,49.14,121.396,49.14z M122.836,85.326h-18.99V52.282h18.99V85.326
			z"/>
	</g>
	<g>
		<path fill="#414142" d="M63.061,39.06c-3.835,0-6.954,3.121-6.954,6.958c0,3.834,3.119,6.955,6.954,6.955
			c3.836,0,6.956-3.12,6.956-6.955C70.017,42.181,66.896,39.06,63.061,39.06z"/>
		<path fill="#414142" d="M104.209,47.605V22.063H24.998v52.424h74.55v-21.25C99.548,50.442,101.559,48.111,104.209,47.605z
			 M78.61,61.923c-0.24,0.24-0.555,0.36-0.869,0.36s-0.629-0.12-0.869-0.36l-8.293-8.295c-1.553,1.128-3.456,1.802-5.519,1.802
			c-5.19,0-9.413-4.222-9.413-9.413c0-5.192,4.223-9.416,9.413-9.416c5.191,0,9.415,4.224,9.415,9.416
			c0,2.244-0.792,4.304-2.107,5.923l8.242,8.244C79.091,60.665,79.09,61.443,78.61,61.923z"/>
		<path fill="#414142" d="M23.357,76.144V20.423h82.762v27.078h4.099V20.423c0-2.264-1.834-4.098-4.099-4.098H23.357
			c-2.264,0-4.097,1.834-4.097,4.098v55.721c0,2.263,1.833,4.098,4.097,4.098h76.19v-4.098H23.357z"/>
	</g>
</g>
</svg>
