<?xml version="1.0" encoding="utf-8"?>
<!-- Generator: Adobe Illustrator 16.0.0, SVG Export Plug-In . SVG Version: 6.00 Build 0)  -->
<!DOCTYPE svg PUBLIC "-//W3C//DTD SVG 1.1//EN" "http://www.w3.org/Graphics/SVG/1.1/DTD/svg11.dtd">
<svg version="1.1" id="Layer_1" xmlns="http://www.w3.org/2000/svg" xmlns:xlink="http://www.w3.org/1999/xlink" x="0px" y="0px"
	 width="42px" height="42.954px" viewBox="0 0 42 42.954" enable-background="new 0 0 42 42.954" xml:space="preserve">
<g>
	<g>
		<path fill="#4D4E53" d="M21.271,37.514L10.467,25.717c-0.373-0.407-0.346-1.04,0.062-1.413c0.408-0.373,1.04-0.345,1.413,0.062
			l9.334,10.189l9.374-10.191c0.375-0.405,1.01-0.432,1.413-0.059c0.406,0.374,0.434,1.006,0.06,1.413L21.271,37.514z"/>
	</g>
	<g>
		<path fill="#4D4E53" d="M21.295,37.018c-0.553,0-1-0.448-1-1V7.006c0-0.552,0.447-1,1-1s1,0.448,1,1v29.012
			C22.295,36.57,21.848,37.018,21.295,37.018z"/>
	</g>
</g>
</svg>
