<?xml version="1.0" encoding="UTF-8"?>
<!-- Generator: Adobe Illustrator 17.0.0, SVG Export Plug-In . SVG Version: 6.00 Build 0)  -->
<!DOCTYPE svg PUBLIC "-//W3C//DTD SVG 1.1//EN" "http://www.w3.org/Graphics/SVG/1.1/DTD/svg11.dtd">
<svg version="1.1" id="Layer_1" xmlns="http://www.w3.org/2000/svg" xmlns:xlink="http://www.w3.org/1999/xlink" x="0px" y="0px" width="150px" height="117px" viewBox="0 0 150 117" enable-background="new 0 0 150 117" xml:space="preserve">
<g>
	<path fill="#B2AEA5" d="M123.161,99.96c0,1.104-0.821,2-1.833,2H32.66c-1.012,0-1.833-0.895-1.833-2l0,0c0-1.105,0.821-2,1.833-2   h88.668C122.34,97.96,123.161,98.855,123.161,99.96L123.161,99.96z"/>
	<g>
		<g>
			<path fill="#414142" d="M30.433,87.706c-0.736,0-1.137-0.898-1.644-2.031c-0.183-0.411-0.469-1.048-0.674-1.335     c-0.215,0.265-0.53,0.839-0.733,1.21c-0.629,1.149-1.122,2.057-1.916,1.953c-0.777-0.104-1.005-1.096-1.294-2.352     c-0.1-0.429-0.254-1.097-0.396-1.412c-0.271,0.207-0.719,0.706-1.008,1.028c-0.875,0.976-1.566,1.742-2.308,1.447     c-0.738-0.296-0.691-1.321-0.634-2.618c0.02-0.443,0.051-1.135-0.004-1.472c-0.317,0.109-0.898,0.448-1.271,0.665     c-1.099,0.64-2.047,1.195-2.665,0.659c-0.599-0.519-0.215-1.46,0.272-2.654c0.17-0.42,0.438-1.078,0.496-1.417     c-0.354-0.009-0.974,0.113-1.389,0.188C14,79.793,12.906,79.991,12.5,79.27c-0.378-0.675,0.28-1.43,1.115-2.387     c0.302-0.345,0.773-0.886,0.942-1.195c-0.316-0.095-0.953-0.168-1.363-0.214c-1.275-0.146-2.379-0.271-2.575-1.069     c-0.181-0.739,0.637-1.304,1.672-2.021c0.397-0.275,1.029-0.711,1.243-0.967c-0.262-0.21-1.004-0.502-1.467-0.686     c-1.147-0.451-2.138-0.84-2.159-1.636c-0.024-0.841,0.987-1.297,2.159-1.826c0.43-0.193,1.117-0.503,1.354-0.707     c-0.192-0.264-0.848-0.73-1.255-1.021c-1.012-0.721-1.887-1.343-1.706-2.128c0.188-0.816,1.277-0.998,2.54-1.208     c0.47-0.078,1.224-0.204,1.506-0.343c-0.117-0.3-0.623-0.914-0.939-1.296c-0.794-0.965-1.482-1.797-1.102-2.515     c0.388-0.731,1.48-0.633,2.747-0.519c0.478,0.042,1.243,0.111,1.557,0.046c-0.047-0.32-0.39-1.029-0.604-1.472     c-0.545-1.124-1.014-2.094-0.483-2.705c0.539-0.619,1.581-0.29,2.789,0.092c0.456,0.145,1.186,0.375,1.506,0.381     c0.016-0.327-0.187-1.092-0.312-1.57c-0.316-1.198-0.588-2.231,0.036-2.729c0.646-0.515,1.621-0.009,2.75,0.577     c0.417,0.216,1.083,0.561,1.396,0.625c0.069-0.326-0.017-1.131-0.068-1.635c-0.134-1.259-0.238-2.253,0.435-2.646     c0.732-0.427,1.651,0.223,2.713,0.977c0.374,0.266,0.977,0.694,1.258,0.792c0.124-0.277,0.148-1.253,0.161-1.793     c0.03-1.233,0.052-2.124,0.713-2.405c1.188-0.503,2.045,0.594,2.673,1.395c0.272,0.349,0.778,0.992,0.975,0.938l0.342,1.108     c-0.959,0.294-1.634-0.569-2.23-1.332c-0.497-0.637-0.889-1.094-1.208-1.066c-0.076,0.266-0.095,0.932-0.105,1.39     c-0.03,1.267-0.06,2.465-0.828,2.85c-0.651,0.326-1.432-0.228-2.421-0.93c-0.385-0.274-1.061-0.754-1.402-0.871     c-0.042,0.329,0.033,1.028,0.079,1.472c0.132,1.243,0.245,2.314-0.415,2.763c-0.621,0.425-1.493-0.028-2.6-0.601     c-0.425-0.221-1.098-0.569-1.438-0.645c0.008,0.338,0.189,1.031,0.307,1.473c0.312,1.185,0.581,2.209,0.018,2.745     c-0.549,0.521-1.539,0.208-2.683-0.155c-0.447-0.141-1.149-0.364-1.498-0.386c0.075,0.334,0.386,0.978,0.585,1.388     c0.528,1.093,0.986,2.037,0.548,2.668c-0.429,0.617-1.455,0.526-2.647,0.417c-0.461-0.041-1.188-0.107-1.534-0.055     c0.155,0.307,0.602,0.85,0.889,1.197c0.771,0.936,1.437,1.745,1.168,2.462c-0.261,0.695-1.222,0.856-2.44,1.06     c-0.46,0.077-1.183,0.196-1.507,0.335c0.23,0.254,0.794,0.655,1.155,0.913c0.994,0.709,1.854,1.321,1.779,2.09     c-0.07,0.736-0.953,1.134-2.073,1.639c-0.435,0.195-1.114,0.502-1.39,0.722c0.281,0.189,0.924,0.442,1.336,0.604     c1.147,0.452,2.138,0.841,2.246,1.617c0.105,0.757-0.729,1.335-1.787,2.068c-0.309,0.213-0.771,0.533-1.029,0.766     c0.359,0.099,0.99,0.171,1.405,0.217c1.197,0.137,2.143,0.245,2.393,0.903c0.269,0.704-0.392,1.461-1.229,2.42     c-0.241,0.275-0.598,0.685-0.796,0.973c0.372-0.015,0.968-0.122,1.365-0.194c1.183-0.213,2.114-0.382,2.554,0.163     c0.461,0.572,0.089,1.487-0.382,2.645c-0.14,0.34-0.345,0.845-0.44,1.187c0.34-0.144,0.84-0.435,1.177-0.63     c1.052-0.613,1.883-1.098,2.492-0.732c0.623,0.375,0.579,1.353,0.523,2.592c-0.017,0.383-0.043,0.956-0.013,1.314     c0.277-0.236,0.672-0.676,0.935-0.968c0.823-0.92,1.475-1.646,2.177-1.468c0.717,0.182,0.938,1.146,1.22,2.366     c0.087,0.384,0.221,0.961,0.348,1.296c0.223-0.292,0.519-0.834,0.715-1.193c0.596-1.083,1.073-1.96,1.789-1.912     c0.76,0.029,1.171,0.951,1.695,2.12c0.158,0.357,0.4,0.898,0.586,1.193c0.183-0.328,0.403-0.959,0.547-1.373     c0.412-1.184,0.71-2.039,1.413-2.122c0.811-0.094,1.417,0.855,2.119,1.956c0.225,0.351,0.544,0.852,0.744,1.07     c0.188-0.229,0.222-0.959,0.244-1.466c0.046-0.969,0.096-2.068,1.008-2.339l0.33,1.11c-0.125,0.125-0.16,0.877-0.179,1.283     c-0.047,1.012-0.11,2.397-1.294,2.621c-0.691,0.136-1.17-0.619-1.832-1.655c-0.25-0.395-0.685-1.077-0.961-1.338     c-0.16,0.289-0.365,0.88-0.498,1.263c-0.423,1.216-0.789,2.266-1.604,2.302C30.459,87.705,30.444,87.706,30.433,87.706z"/>
		</g>
		<g>
			<g>
				<circle fill="#414142" cx="81.896" cy="57.487" r="2.222"/>
			</g>
			<g>
				<circle fill="#414142" cx="88.363" cy="61.351" r="2.222"/>
			</g>
			<g>
				<circle fill="#414142" cx="91.841" cy="67.726" r="2.222"/>
			</g>
			<g>
				<circle fill="#414142" cx="78.469" cy="83.085" r="2.222"/>
			</g>
			<g>
				<circle fill="#414142" cx="85.567" cy="81.25" r="2.222"/>
			</g>
			<g>
				<circle fill="#414142" cx="71.465" cy="80.96" r="2.222"/>
			</g>
			<g>
				<circle fill="#414142" cx="66.827" cy="75.551" r="2.222"/>
			</g>
			<g>
				<circle fill="#414142" cx="65.668" cy="68.499" r="2.222"/>
			</g>
			<g>
				<circle fill="#414142" cx="68.566" cy="61.641" r="2.222"/>
			</g>
			<g>
				<circle fill="#414142" cx="74.555" cy="57.487" r="2.222"/>
			</g>
			<g>
				<polygon fill="#414142" points="94.082,37.737 94.072,37.734 94.071,37.735     "/>
			</g>
			<g>
				<path fill="#414142" d="M121.893,70.648c-0.12-12.75-9.274-12.4-20.093-16.65c-10.808-4.245-7.735-16.241-7.729-16.27      c-0.063-0.006-0.825-0.076-2.032-0.172V34.11c0-0.64-0.52-1.16-1.158-1.16c-0.643,0-1.159,0.52-1.159,1.16v3.272      c-0.766-0.054-1.598-0.109-2.476-0.162c0.007,0.154,0.023,0.307,0.023,0.463c0,4.855-3.938,8.792-8.792,8.792      s-8.79-3.936-8.79-8.79c0-0.164,0.016-0.322,0.024-0.483c-0.703,0.034-1.381,0.067-2.015,0.101V34.11      c0-0.64-0.52-1.16-1.16-1.16c-0.64,0-1.158,0.52-1.158,1.16v3.322c-1.529,0.089-2.494,0.155-2.494,0.155      s3.09,12.027-7.729,16.277s-19.974,3.888-20.092,16.638c-0.122,12.948,0,22.726,0,22.726h12.02      c0.23,0.025,0.508,0.074,0.769,0.171c0.675,0.25,1.644,1.26,2,2.661c0.356,1.396,0.356,2.385,0.356,2.385h1.686      c0,0,0.08-1.068,0.276-2.333c0.235-1.504,1.092-2.387,1.838-2.686c0.265-0.106,0.504-0.168,0.697-0.197H80.27h21.982      c0.229,0.025,0.509,0.074,0.769,0.171c0.674,0.25,1.644,1.26,2.001,2.661c0.355,1.396,0.355,2.385,0.355,2.385h1.687      c0,0,0.078-1.068,0.276-2.333c0.234-1.504,1.09-2.387,1.836-2.686c0.266-0.106,0.504-0.168,0.697-0.197h12.018      C121.893,93.228,122.014,83.597,121.893,70.648z M92.996,78.854c-0.609-0.027-1.322-0.17-1.923-0.599      c-1.352-0.965-1.448-1.545-1.642-2.028c-0.193-0.482-0.868-0.386-0.677,0.483c0.194,0.87,0.677,2.223,2.126,2.898      c0.423,0.197,0.862,0.361,1.271,0.495c-3.072,4.149-8.002,6.847-13.552,6.847c-9.295,0-16.856-7.562-16.856-16.856      c0-9.295,7.562-16.856,16.856-16.856S95.455,60.8,95.455,70.094C95.457,73.299,94.556,76.299,92.996,78.854z"/>
			</g>
			<g>
				<path fill="#414142" d="M78.601,60.771c-5.142,0-9.323,4.181-9.323,9.322c0,5.14,4.182,9.321,9.323,9.321      s9.321-4.182,9.321-9.321C87.922,64.953,83.741,60.771,78.601,60.771z"/>
			</g>
		</g>
	</g>
</g>
</svg>