<?xml version="1.0" encoding="utf-8"?>
<!-- Generator: Adobe Illustrator 16.0.0, SVG Export Plug-In . SVG Version: 6.00 Build 0)  -->
<!DOCTYPE svg PUBLIC "-//W3C//DTD SVG 1.1//EN" "http://www.w3.org/Graphics/SVG/1.1/DTD/svg11.dtd">
<svg version="1.1" id="Layer_1" xmlns="http://www.w3.org/2000/svg" xmlns:xlink="http://www.w3.org/1999/xlink" x="0px" y="0px"
	 width="41px" height="41.932px" viewBox="0 0 41 41.932" enable-background="new 0 0 41 41.932" xml:space="preserve">
<g>
	<g>
		<path fill="#4D4E53" d="M27.72,27.969c-0.192,0-0.384-0.073-0.53-0.22L15.793,16.353c-0.293-0.293-0.293-0.768,0-1.061
			s0.768-0.293,1.061,0L28.25,26.689c0.293,0.293,0.293,0.768,0,1.061C28.104,27.896,27.912,27.969,27.72,27.969z"/>
	</g>
	<g>
		<path fill="#4D4E53" d="M16.323,27.969c-0.192,0-0.384-0.073-0.53-0.22c-0.293-0.293-0.293-0.768,0-1.061l11.396-11.396
			c0.293-0.293,0.768-0.293,1.061,0s0.293,0.768,0,1.061L16.854,27.75C16.707,27.896,16.516,27.969,16.323,27.969z"/>
	</g>
</g>
</svg>
