<?xml version="1.0" encoding="utf-8"?>
<!-- Generator: Adobe Illustrator 16.0.0, SVG Export Plug-In . SVG Version: 6.00 Build 0)  -->
<!DOCTYPE svg PUBLIC "-//W3C//DTD SVG 1.1//EN" "http://www.w3.org/Graphics/SVG/1.1/DTD/svg11.dtd">
<svg version="1.1" id="Layer_1" xmlns="http://www.w3.org/2000/svg" xmlns:xlink="http://www.w3.org/1999/xlink" x="0px" y="0px"
	 width="145px" height="46px" viewBox="0 0 145 46" enable-background="new 0 0 145 46" xml:space="preserve">
<g>
	<path fill="#4D4E53" d="M18.185,13.504c0.354,0.547,0.512,1.035,0.71,2.065c1.386-1.354,3.095-2.065,4.963-2.065
		c1.685,0,3.067,0.547,4.138,1.664c0.29,0.279,0.567,0.641,0.808,0.996c1.861-1.908,3.529-2.66,5.766-2.66
		c1.591,0,3.098,0.476,4.02,1.268c1.149,0.994,1.515,2.189,1.515,4.973v14.475h-5.171V20.779c0-2.436-0.288-2.906-1.675-2.906
		c-0.994,0-2.391,0.678-3.538,1.711v14.635h-5.045V20.972c0-2.54-0.369-3.138-1.849-3.138c-0.983,0-2.347,0.51-3.493,1.549v14.836
		h-5.206V20.02c0-2.941-0.201-4.211-0.761-5.209L18.185,13.504z"/>
	<path fill="#4D4E53" d="M59.141,16.523c1.625,1.908,2.352,4.134,2.352,7.434c0,3.5-0.802,5.89-2.558,7.875
		c-1.543,1.747-3.576,2.824-6.71,2.824c-5.536,0-9.146-4.137-9.146-10.537c0-6.404,3.649-10.661,9.146-10.661
		C55.126,13.458,57.392,14.455,59.141,16.523z M49.56,19.463C49.193,20.541,49,21.971,49,24c0,2.34,0.239,4.1,0.673,5.129
		c0.481,1.114,1.679,1.67,2.704,1.67c2.309,0,3.295-2.065,3.295-6.877c0-2.746-0.358-4.539-1.07-5.455
		c-0.512-0.672-1.342-1.071-2.302-1.071C51.025,17.396,49.99,18.188,49.56,19.463z"/>
	<path fill="#4D4E53" d="M78.633,13.857v3.66L69.639,30.52h9.345l-1.275,3.699H62.724V30.92l9.573-13.322h-8.775v-3.74H78.633z"/>
	<path fill="#4D4E53" d="M87.645,8.252c0,1.832-1.457,3.295-3.299,3.295c-1.783,0-3.251-1.463-3.251-3.295
		c0-1.828,1.517-3.303,3.34-3.303C86.221,4.949,87.645,6.424,87.645,8.252z M87.018,13.379v20.84h-5.328V14.216L87.018,13.379z"/>
	<path fill="#4D4E53" d="M96.721,10.084v15.863c0,3.505,0.042,3.977,0.359,4.533c0.202,0.359,0.635,0.555,1.079,0.555
		c0.191,0,0.307,0,0.593-0.072l0.912,3.178c-0.912,0.355-2.027,0.555-3.182,0.555c-2.271,0-4.1-1.071-4.732-2.777
		c-0.399-1.035-0.486-1.675-0.486-4.577V12.145c0-2.662-0.068-4.288-0.268-6.125l5.45-1.232C96.637,5.9,96.721,7.213,96.721,10.084z
		"/>
	<path fill="#4D4E53" d="M107.771,10.084v15.863c0,3.505,0.045,3.977,0.373,4.533c0.186,0.359,0.617,0.555,1.062,0.555
		c0.201,0,0.322,0,0.605-0.072l0.906,3.178c-0.906,0.355-2.023,0.555-3.181,0.555c-2.269,0-4.101-1.071-4.736-2.777
		c-0.405-1.035-0.472-1.675-0.472-4.577V12.145c0-2.662-0.081-4.288-0.287-6.125l5.443-1.232
		C107.705,5.9,107.771,7.213,107.771,10.084z"/>
	<path fill="#4D4E53" d="M116.133,14.615c1.98-0.838,3.684-1.191,5.561-1.191c3.426,0,5.768,1.268,6.57,3.537
		c0.264,0.834,0.387,1.471,0.362,3.659l-0.129,6.837c0,0.119,0,0.246,0,0.359c0,2.188,0.361,3.023,1.919,4.175l-2.829,3.267
		c-1.244-0.521-2.353-1.438-2.871-2.469c-0.393,0.401-0.834,0.79-1.236,1.071c-0.988,0.717-2.43,1.116-4.099,1.116
		c-4.535,0-6.999-2.312-6.999-6.359c0-4.78,3.31-7.01,9.788-7.01c0.389,0,0.756,0,1.198,0.045v-0.83
		c0-2.271-0.442-3.027-2.401-3.027c-1.688,0-3.694,0.83-5.878,2.307l-2.269-3.82C113.902,15.604,114.697,15.209,116.133,14.615z
		 M123.039,25.312c-3.685,0-4.978,0.67-4.978,3.106c0,1.585,1.008,2.658,2.359,2.658c0.991,0,1.991-0.518,2.781-1.39l0.087-4.375
		H123.039z"/>
</g>
</svg>
