<?xml version="1.0" encoding="UTF-8"?>
<!-- Generator: Adobe Illustrator 17.0.0, SVG Export Plug-In . SVG Version: 6.00 Build 0)  -->
<!DOCTYPE svg PUBLIC "-//W3C//DTD SVG 1.1//EN" "http://www.w3.org/Graphics/SVG/1.1/DTD/svg11.dtd">
<svg version="1.1" id="Layer_1" xmlns="http://www.w3.org/2000/svg" xmlns:xlink="http://www.w3.org/1999/xlink" x="0px" y="0px" width="40px" height="40px" viewBox="0 0 40 40" enable-background="new 0 0 40 40" xml:space="preserve">
<path fill="#DEDEDE" d="M32.333,30.538l-8.24-8.241c1.186-1.567,1.898-3.511,1.898-5.623c0-5.153-4.192-9.345-9.345-9.345  s-9.345,4.192-9.345,9.345s4.192,9.345,9.345,9.345c2.141,0,4.11-0.731,5.687-1.947l8.232,8.233  c0.244,0.244,0.564,0.366,0.884,0.366s0.64-0.122,0.884-0.366C32.822,31.817,32.822,31.026,32.333,30.538z M16.646,23.519  c-3.781,0-6.845-3.065-6.845-6.845c0-3.781,3.065-6.845,6.845-6.845c3.781,0,6.845,3.065,6.845,6.845  C23.491,20.455,20.426,23.519,16.646,23.519z"/>
</svg>