<?xml version="1.0" encoding="UTF-8"?>
<!-- Generator: Adobe Illustrator 17.0.0, SVG Export Plug-In . SVG Version: 6.00 Build 0)  -->
<!DOCTYPE svg PUBLIC "-//W3C//DTD SVG 1.1//EN" "http://www.w3.org/Graphics/SVG/1.1/DTD/svg11.dtd">
<svg version="1.1" id="Layer_1" xmlns="http://www.w3.org/2000/svg" xmlns:xlink="http://www.w3.org/1999/xlink" x="0px" y="0px" width="110px" height="50px" viewBox="0 0 110 50" enable-background="new 0 0 110 50" xml:space="preserve">
<g>
	<path fill="#414142" d="M100.359,33.555c-0.868-3.767-2.293-6.747-4.598-9.627C93.823,21.506,83.834,7.259,55.383,7.259   C25.064,7.259,16.2,21.547,14.237,24c-2.303,2.881-3.728,5.824-4.597,9.591c-0.87,3.768-0.543,7.964-0.543,7.964   s3.066,1.641,10.602,1.061c7.534-0.58,10.265-2.524,10.265-2.524s0.289-3.479-0.58-6.088c-0.87-2.608-2.838-3.16-4.057-3.993   c-3.322-2.267-1.124-17.292,29.768-17.292c28.453,0,33.039,14.928,29.578,17.292c-1.219,0.833-3.188,1.416-4.056,4.024   c-0.87,2.608-0.581,6.069-0.581,6.069s2.729,1.931,10.265,2.51c7.535,0.58,10.602-1.074,10.602-1.074   S101.229,37.322,100.359,33.555z"/>
</g>
</svg>