<?xml version="1.0" encoding="UTF-8"?>
<!-- Generator: Adobe Illustrator 17.0.0, SVG Export Plug-In . SVG Version: 6.00 Build 0)  -->
<!DOCTYPE svg PUBLIC "-//W3C//DTD SVG 1.1//EN" "http://www.w3.org/Graphics/SVG/1.1/DTD/svg11.dtd">
<svg version="1.1" id="Layer_1" xmlns="http://www.w3.org/2000/svg" xmlns:xlink="http://www.w3.org/1999/xlink" x="0px" y="0px" width="60px" height="60px" viewBox="0 0 60 60" enable-background="new 0 0 60 60" xml:space="preserve">
<g>
	<path fill="#D7D3C7" d="M55.426,52.426c0,1.65-1.35,3-3,3H7.574c-1.65,0-3-1.35-3-3V7.574c0-1.65,1.35-3,3-3h44.851   c1.65,0,3,1.35,3,3V52.426z"/>
</g>
<g>
	<path fill="#414142" d="M49.01,49.035H10.941V10.966H49.01V49.035z M12.199,47.777h35.553V12.224H12.199V47.777z"/>
	<g>
		<path fill="#414142" d="M8.324,53.086c-0.361,0-0.694-0.149-0.988-0.442c-0.935-0.931-0.183-1.878,0.267-2.444    c0.306-0.384,0.621-0.781,0.621-1.162c0-0.433-0.174-0.621-0.462-0.932c-0.336-0.363-0.796-0.86-0.796-1.786    c0-0.925,0.46-1.422,0.797-1.785c0.287-0.311,0.461-0.498,0.461-0.93c0-0.433-0.174-0.621-0.462-0.932    c-0.336-0.363-0.796-0.86-0.796-1.786s0.46-1.423,0.797-1.786c0.287-0.311,0.461-0.499,0.461-0.931    c0-0.434-0.174-0.621-0.462-0.932c-0.336-0.363-0.796-0.861-0.796-1.787c0-0.925,0.46-1.423,0.796-1.786    c0.288-0.311,0.462-0.499,0.462-0.932c0-0.434-0.174-0.622-0.462-0.933c-0.336-0.363-0.796-0.86-0.796-1.786    s0.46-1.424,0.796-1.787c0.288-0.312,0.462-0.5,0.462-0.933s-0.174-0.622-0.462-0.933c-0.336-0.363-0.796-0.86-0.796-1.787    c0-0.926,0.46-1.423,0.797-1.786c0.287-0.311,0.461-0.499,0.461-0.931c0-0.434-0.174-0.622-0.462-0.933    c-0.336-0.363-0.796-0.86-0.796-1.787c0-0.927,0.46-1.424,0.796-1.787c0.288-0.312,0.462-0.5,0.462-0.933    c0-0.434-0.174-0.622-0.462-0.934c-0.336-0.363-0.796-0.861-0.796-1.788s0.46-1.426,0.796-1.79c0.288-0.312,0.462-0.5,0.462-0.936    c0-0.382-0.315-0.78-0.621-1.165c-0.45-0.566-1.202-1.513-0.27-2.448c0.293-0.294,0.625-0.443,0.986-0.443    c0.563,0,1.019,0.361,1.458,0.71c0.384,0.305,0.781,0.621,1.161,0.621c0.433,0,0.62-0.174,0.932-0.461    c0.362-0.336,0.86-0.796,1.786-0.796c0.925,0,1.422,0.46,1.785,0.796c0.311,0.288,0.497,0.461,0.93,0.461    c0.434,0,0.621-0.174,0.933-0.461c0.362-0.336,0.859-0.796,1.785-0.796s1.423,0.46,1.786,0.797    c0.311,0.288,0.498,0.461,0.93,0.461c0.434,0,0.621-0.174,0.933-0.461c0.363-0.336,0.86-0.796,1.787-0.796    c0.926,0,1.423,0.46,1.785,0.796c0.312,0.288,0.499,0.461,0.933,0.461s0.621-0.174,0.933-0.461    c0.363-0.336,0.86-0.796,1.786-0.796s1.423,0.46,1.786,0.796c0.312,0.288,0.499,0.461,0.933,0.461s0.622-0.174,0.934-0.462    c0.363-0.336,0.86-0.796,1.787-0.796c0.926,0,1.423,0.46,1.785,0.796c0.312,0.288,0.499,0.461,0.932,0.461    c0.434,0,0.621-0.174,0.933-0.461c0.363-0.336,0.86-0.796,1.786-0.796c0.927,0,1.424,0.46,1.787,0.796    c0.312,0.288,0.5,0.462,0.934,0.462s0.622-0.174,0.934-0.462c0.363-0.336,0.86-0.796,1.787-0.796s1.425,0.46,1.789,0.796    c0.312,0.288,0.5,0.462,0.936,0.462c0.383,0,0.781-0.316,1.166-0.622c0.439-0.349,0.895-0.71,1.459-0.71    c0.361,0,0.694,0.148,0.988,0.441c0.935,0.931,0.183,1.878-0.268,2.444c-0.305,0.384-0.62,0.781-0.62,1.162    c0,0.433,0.174,0.621,0.462,0.932c0.336,0.363,0.796,0.86,0.796,1.786c0,0.925-0.46,1.422-0.797,1.785    c-0.287,0.311-0.461,0.498-0.461,0.93c0,0.433,0.174,0.621,0.462,0.932c0.336,0.363,0.796,0.86,0.796,1.787    c0,0.926-0.46,1.423-0.797,1.786c-0.287,0.311-0.461,0.498-0.461,0.931c0,0.434,0.174,0.621,0.462,0.932    c0.336,0.363,0.796,0.861,0.796,1.787s-0.46,1.423-0.797,1.786c-0.287,0.311-0.461,0.499-0.461,0.931    c0,0.434,0.174,0.621,0.462,0.932c0.336,0.363,0.796,0.861,0.796,1.787s-0.46,1.424-0.796,1.787    c-0.288,0.312-0.462,0.5-0.462,0.933c0,0.434,0.174,0.622,0.462,0.934c0.336,0.363,0.796,0.86,0.796,1.787    c0,0.925-0.46,1.422-0.796,1.785c-0.288,0.311-0.462,0.499-0.462,0.931c0,0.434,0.174,0.622,0.462,0.933    c0.336,0.363,0.796,0.86,0.796,1.787s-0.46,1.424-0.796,1.787c-0.288,0.312-0.462,0.5-0.462,0.933    c0,0.435,0.174,0.623,0.462,0.934c0.336,0.363,0.796,0.861,0.796,1.787c0,0.886-0.497,1.429-0.859,1.825    c-0.405,0.442-0.49,0.578-0.398,0.901c0.158,0.554,0.479,0.949,0.762,1.298c0.409,0.503,1.093,1.347,0.129,2.314    c-0.293,0.294-0.625,0.443-0.986,0.443c-0.563,0-1.019-0.361-1.458-0.71c-0.384-0.305-0.781-0.621-1.161-0.621    c-0.433,0-0.62,0.174-0.932,0.461c-0.362,0.336-0.86,0.796-1.786,0.796c-0.925,0-1.422-0.46-1.785-0.796    c-0.311-0.288-0.497-0.461-0.93-0.461c-0.434,0-0.621,0.174-0.933,0.461c-0.362,0.336-0.859,0.796-1.785,0.796    s-1.423-0.46-1.786-0.797c-0.311-0.288-0.498-0.461-0.93-0.461c-0.434,0-0.621,0.174-0.933,0.461    c-0.363,0.336-0.86,0.796-1.786,0.796s-1.424-0.46-1.786-0.796c-0.312-0.288-0.499-0.461-0.932-0.461    c-0.434,0-0.621,0.174-0.933,0.461c-0.363,0.336-0.86,0.796-1.786,0.796c-0.927,0-1.424-0.46-1.787-0.796    c-0.312-0.288-0.499-0.461-0.933-0.461s-0.621,0.174-0.933,0.461c-0.363,0.336-0.86,0.796-1.787,0.796    c-0.926,0-1.423-0.46-1.785-0.796c-0.312-0.288-0.499-0.461-0.932-0.461c-0.434,0-0.622,0.174-0.934,0.462    c-0.363,0.336-0.86,0.796-1.786,0.796c-0.927,0-1.424-0.46-1.787-0.796c-0.312-0.288-0.5-0.462-0.934-0.462    s-0.622,0.174-0.934,0.462c-0.363,0.336-0.86,0.796-1.787,0.796s-1.425-0.46-1.789-0.796c-0.312-0.288-0.5-0.462-0.936-0.462    c-0.383,0-0.781,0.316-1.166,0.622C9.343,52.724,8.888,53.085,8.324,53.086z M8.15,51.657c0.001,0,0.011,0.033,0.073,0.095    c0.057,0.056,0.092,0.073,0.1,0.075h0.001c0.126,0,0.458-0.264,0.677-0.438c0.502-0.399,1.127-0.895,1.948-0.895    c0.927,0,1.425,0.46,1.789,0.796c0.312,0.288,0.5,0.462,0.936,0.462c0.434,0,0.622-0.174,0.934-0.462    c0.363-0.336,0.86-0.796,1.787-0.796s1.424,0.46,1.787,0.796c0.312,0.288,0.5,0.462,0.934,0.462s0.621-0.174,0.933-0.461    c0.363-0.336,0.86-0.796,1.787-0.796c0.926,0,1.423,0.46,1.785,0.796c0.312,0.288,0.499,0.461,0.932,0.461    c0.434,0,0.622-0.174,0.934-0.462c0.363-0.336,0.86-0.796,1.786-0.796s1.423,0.46,1.786,0.796c0.312,0.288,0.5,0.462,0.934,0.462    s0.621-0.174,0.933-0.461c0.363-0.336,0.86-0.796,1.786-0.796c0.926,0,1.423,0.46,1.785,0.796    c0.312,0.288,0.499,0.461,0.933,0.461s0.621-0.174,0.933-0.461c0.363-0.336,0.86-0.796,1.786-0.796    c0.925,0,1.422,0.46,1.785,0.796c0.311,0.288,0.498,0.461,0.931,0.461s0.62-0.174,0.932-0.461c0.362-0.336,0.86-0.796,1.786-0.796    c0.925,0,1.422,0.46,1.785,0.796c0.311,0.288,0.497,0.461,0.93,0.461c0.434,0,0.621-0.174,0.933-0.461    c0.362-0.336,0.859-0.796,1.785-0.796c0.819,0,1.442,0.496,1.944,0.894c0.219,0.174,0.55,0.437,0.675,0.437l0,0    c0,0,0.032-0.01,0.096-0.073c0.111-0.111,0.128-0.166,0.128-0.166c-0.017-0.066-0.205-0.298-0.343-0.468    c-0.323-0.398-0.766-0.943-0.994-1.745c-0.295-1.032,0.269-1.646,0.68-2.095c0.338-0.37,0.529-0.597,0.529-0.976    c0-0.434-0.174-0.622-0.462-0.934c-0.336-0.363-0.796-0.861-0.796-1.788c0-0.926,0.46-1.423,0.796-1.787    c0.288-0.312,0.462-0.5,0.462-0.934s-0.174-0.622-0.462-0.933c-0.336-0.363-0.796-0.86-0.796-1.787    c0-0.926,0.46-1.423,0.797-1.786c0.287-0.311,0.461-0.498,0.461-0.931c0-0.434-0.174-0.622-0.462-0.933    c-0.336-0.363-0.796-0.861-0.796-1.787s0.46-1.424,0.796-1.787c0.288-0.312,0.462-0.5,0.462-0.933s-0.174-0.621-0.462-0.932    c-0.336-0.363-0.796-0.861-0.796-1.787c0-0.925,0.46-1.422,0.796-1.786c0.288-0.311,0.462-0.499,0.462-0.932    c0-0.434-0.174-0.621-0.462-0.932c-0.336-0.363-0.796-0.861-0.796-1.787c0-0.925,0.46-1.422,0.796-1.785    c0.288-0.311,0.462-0.499,0.462-0.931c0-0.434-0.174-0.621-0.462-0.932c-0.336-0.363-0.796-0.86-0.796-1.786    c0-0.925,0.46-1.422,0.797-1.785c0.287-0.311,0.461-0.498,0.461-0.93c0-0.433-0.174-0.621-0.462-0.932    c-0.336-0.363-0.796-0.86-0.796-1.786c0-0.819,0.495-1.442,0.894-1.944c0.155-0.196,0.445-0.56,0.438-0.676l0,0    c-0.001,0-0.01-0.032-0.073-0.095c-0.065-0.065-0.1-0.075-0.1-0.075c-0.127,0-0.458,0.263-0.678,0.438    c-0.502,0.399-1.127,0.895-1.948,0.895c-0.927,0-1.425-0.46-1.789-0.796c-0.312-0.288-0.5-0.462-0.936-0.462    c-0.434,0-0.622,0.174-0.934,0.462c-0.363,0.336-0.86,0.796-1.787,0.796s-1.424-0.46-1.787-0.796    c-0.312-0.288-0.5-0.462-0.934-0.462s-0.621,0.174-0.933,0.461c-0.363,0.336-0.86,0.796-1.786,0.796s-1.423-0.46-1.785-0.796    c-0.312-0.288-0.499-0.461-0.932-0.461c-0.434,0-0.622,0.174-0.934,0.462c-0.363,0.336-0.86,0.796-1.787,0.796    c-0.926,0-1.423-0.46-1.786-0.796c-0.312-0.288-0.499-0.461-0.933-0.461s-0.621,0.174-0.933,0.461    c-0.363,0.336-0.86,0.796-1.786,0.796s-1.424-0.46-1.786-0.796c-0.312-0.288-0.499-0.461-0.932-0.461    c-0.434,0-0.622,0.174-0.934,0.462c-0.363,0.336-0.86,0.796-1.786,0.796c-0.925,0-1.422-0.46-1.785-0.796    c-0.311-0.288-0.498-0.461-0.931-0.461s-0.62,0.174-0.932,0.461c-0.362,0.336-0.86,0.796-1.786,0.796    c-0.925,0-1.422-0.46-1.785-0.796c-0.311-0.288-0.497-0.461-0.93-0.461c-0.434,0-0.621,0.174-0.933,0.461    c-0.362,0.336-0.859,0.796-1.785,0.796c-0.819,0-1.442-0.496-1.944-0.894C8.776,8.437,8.445,8.174,8.32,8.174l0,0    c0,0-0.032,0.01-0.096,0.073C8.159,8.312,8.15,8.346,8.15,8.347C8.138,8.46,8.43,8.828,8.588,9.025    c0.398,0.502,0.895,1.126,0.895,1.947c0,0.927-0.46,1.425-0.796,1.789c-0.288,0.312-0.462,0.501-0.462,0.937    c0,0.435,0.174,0.623,0.462,0.934c0.336,0.363,0.796,0.861,0.796,1.787c0,0.926-0.46,1.424-0.796,1.787    c-0.288,0.312-0.462,0.5-0.462,0.933c0,0.433,0.174,0.622,0.462,0.933c0.336,0.363,0.796,0.86,0.796,1.787    c0,0.926-0.46,1.423-0.797,1.786c-0.287,0.311-0.461,0.499-0.461,0.931c0,0.434,0.174,0.622,0.462,0.933    c0.336,0.363,0.796,0.86,0.796,1.787s-0.46,1.424-0.796,1.787c-0.288,0.312-0.462,0.5-0.462,0.933s0.174,0.621,0.462,0.932    c0.336,0.363,0.796,0.861,0.796,1.787s-0.46,1.423-0.797,1.786c-0.287,0.311-0.461,0.499-0.461,0.931    c0,0.434,0.174,0.621,0.462,0.932c0.336,0.363,0.796,0.861,0.796,1.787s-0.46,1.423-0.797,1.786    c-0.287,0.311-0.461,0.499-0.461,0.931c0,0.433,0.174,0.621,0.462,0.932c0.336,0.363,0.796,0.86,0.796,1.786    c0,0.925-0.46,1.422-0.797,1.785c-0.287,0.311-0.461,0.498-0.461,0.93c0,0.433,0.174,0.621,0.462,0.932    c0.336,0.363,0.796,0.86,0.796,1.786c0,0.819-0.495,1.443-0.894,1.944C8.432,51.178,8.143,51.542,8.15,51.657L8.15,51.657z"/>
	</g>
	<polygon fill="#414142" points="14.544,33.533 29.417,24.609 37.04,30.744 41.501,27.77 45.407,30.744 45.407,45.246    14.544,45.246  "/>
	<circle fill="#414142" cx="20.401" cy="20.054" r="3.626"/>
</g>
</svg>